<svg xmlns="http://www.w3.org/2000/svg" id="person-circle-outline" width="22.912" height="22.913" viewBox="0 0 22.912 22.913">
    <defs>
        <style>
            .cls-1{fill:#fff}
        </style>
    </defs>
    <path id="패스_2" d="M14.99 3.375a11.457 11.457 0 1 0 11.295 11.3 11.472 11.472 0 0 0-11.295-11.3zM21.952 21.4a.22.22 0 0 1-.338-.017 6.844 6.844 0 0 0-1.782-1.63 9.35 9.35 0 0 0-5-1.4 9.35 9.35 0 0 0-5 1.4 6.843 6.843 0 0 0-1.786 1.627.22.22 0 0 1-.338.017A9.655 9.655 0 0 1 5.137 15a9.694 9.694 0 1 1 19.386-.165 9.655 9.655 0 0 1-2.571 6.565z" class="cls-1" transform="translate(-3.374 -3.374)"/>
    <path id="패스_3" d="M16.964 10.125a3.639 3.639 0 0 0-3.733 4.006 4.064 4.064 0 0 0 3.733 3.924 4.067 4.067 0 0 0 3.736-3.923 3.7 3.7 0 0 0-.974-2.854 3.74 3.74 0 0 0-2.762-1.153z" class="cls-1" transform="translate(-5.508 -4.837)"/>
</svg>
